<?xml version="1.0" encoding="UTF-8"?>
<svg width="199px" height="74px" viewBox="0 0 199 74" version="1.1" xmlns="http://www.w3.org/2000/svg" xmlns:xlink="http://www.w3.org/1999/xlink">
    <!-- Generator: Sketch 52.5 (67469) - http://www.bohemiancoding.com/sketch -->
    <title>Logo+Text_Dark_Vertical</title>
    <desc>Created with Sketch.</desc>
    <g id="Page-1" stroke="none" stroke-width="1" fill="none" fill-rule="evenodd">
        <g id="Logo+Text_Dark_Vertical" fill="#FFFFFF">
            <g id="Group" transform="translate(75.639246, 24.304260)">
                <path d="M22.6353697,20.2631374 C21.4494389,21.6983831 20.0118593,22.8373756 18.322631,23.6829913 C16.6334028,24.5271688 14.7706236,24.9499767 12.7357399,24.9499767 C10.9770913,24.9499767 9.32691195,24.6307136 7.7852019,23.9921875 C6.24349184,23.3536614 4.90281152,22.4850358 3.76171468,21.3834344 C2.6220641,20.2832711 1.72249219,18.9918377 1.06444522,17.5076959 C0.406398241,16.0235541 0.0780978827,14.4272388 0.0780978827,12.7173119 C0.0780978827,11.007385 0.406398241,9.41106965 1.06444522,7.92692786 C1.72249219,6.44278607 2.6220641,5.14703825 3.76171468,4.03680815 C4.90136527,2.92657805 6.24349184,2.05795243 7.7852019,1.42805504 C9.32691195,0.799595771 10.975645,0.484647077 12.7357399,0.484647077 C14.7706236,0.484647077 16.6334028,0.907454913 18.322631,1.75163246 C20.0118593,2.59724813 21.4205137,3.69741138 22.547148,5.05356032 L19.3755062,8.29652519 C18.6437001,7.25532494 17.7007405,6.41546175 16.5451811,5.77693563 C15.3896217,5.13840951 14.1198079,4.81914646 12.7357399,4.81914646 C11.6293532,4.81914646 10.5866019,5.03055037 9.60893208,5.45335821 C8.63126229,5.87616604 7.77652435,6.44566231 7.04471827,7.16328514 C6.31291218,7.88090796 5.73585561,8.71645678 5.31065602,9.66849347 C4.88545644,10.6219683 4.67285665,11.6387205 4.67285665,12.71875 C4.67285665,13.780084 4.88545644,14.7867693 5.31065602,15.7402441 C5.73585561,16.6937189 6.31291218,17.5292677 7.04471827,18.2454524 C7.7750781,18.9630752 8.63126229,19.5325715 9.60893208,19.9553794 C10.5866019,20.3781872 11.6293532,20.5895911 12.7357399,20.5895911 C14.1979058,20.5895911 15.4923059,20.2602612 16.6189402,19.6016014 C17.7455745,18.9443797 18.6841953,18.0743159 19.4348027,16.9928483 L22.6353697,20.2631374 Z" id="Path"></path>
                <path d="M38.3460604,24.7730877 L34.0781557,24.7730877 L34.0781557,23.5938277 C33.3275483,24.104361 32.5321069,24.458139 31.6918315,24.6551617 C30.8515562,24.8521844 29.9881407,24.9499767 29.0986926,24.9499767 C28.268541,24.9499767 27.5179336,24.8277363 26.845424,24.5818175 C26.1729145,24.3358986 25.5900729,23.9821206 25.0968992,23.5204835 C24.6022793,23.0588464 24.2219137,22.5137982 23.9558024,21.8853389 C23.6882448,21.2568797 23.5551892,20.5593905 23.5551892,19.7928716 C23.5551892,18.830768 23.767789,17.9909049 24.1929885,17.273282 C24.6181881,16.5556592 25.1952447,15.9574005 25.9270508,15.4756297 C26.6574106,14.9938588 27.5135948,14.6357665 28.4912646,14.3999145 C29.4689344,14.1640625 30.5218096,14.0461365 31.6484438,14.0461365 L34.1085271,14.0461365 C34.1085271,13.0437655 33.7831193,12.2484841 33.1308573,11.6588542 C32.4785954,11.0692242 31.5399745,10.7744092 30.3149948,10.7744092 C29.7220294,10.7744092 29.1088164,10.8822683 28.476802,11.0994248 C27.8447877,11.315143 27.2113271,11.7091884 26.5793127,12.2786847 L24.0599329,9.74327581 C24.9681823,8.87896455 26.0210575,8.21023787 27.2171121,7.73853389 C28.4131667,7.26682991 29.6424852,7.03097792 30.9079602,7.03097792 C32.093891,7.03097792 33.1496587,7.21793377 34.0752632,7.59040734 C35.0008678,7.96431903 35.7485827,8.44465174 36.3169617,9.03428172 C37.0632304,9.78066698 37.5867754,10.6162158 37.8919357,11.53949 C38.1956497,12.4627643 38.3475067,13.6420243 38.3475067,15.0772699 L38.3475067,24.7730877 L38.3460604,24.7730877 Z M34.0767095,20.2631374 L34.0767095,17.1093361 C29.6164526,16.9813433 28.6243203,17.6256219 28.6243203,17.6256219 C28.2396159,17.8125777 27.9330094,18.0527441 27.705947,18.3475591 C27.4788846,18.6423741 27.3646303,18.9961521 27.3646303,19.408893 C27.3646303,19.998523 27.5960315,20.4802938 28.0617263,20.8527674 C28.5259748,21.2266791 29.123279,21.4121968 29.855085,21.4121968 C29.855085,21.413635 31.5472058,21.5373134 34.0767095,20.2631374 Z" id="Shape" fill-rule="nonzero"></path>
                <path d="M54.2042694,19.7339086 C54.2042694,20.5795243 54.0061321,21.3302239 53.6098577,21.9888837 C53.2135832,22.6475435 52.6987157,23.1969061 52.0652551,23.6398476 C51.4317945,24.0813511 50.7187898,24.4164335 49.9262409,24.6422186 C49.133692,24.8680037 48.3512669,24.9816154 47.5789656,24.9816154 C46.2715492,24.9816154 45.0682633,24.741449 43.9691079,24.2596782 C42.8699526,23.7779073 41.9038528,23.007074 41.072255,21.94574 L43.6509314,19.3513682 C44.1643527,19.9999611 44.7573181,20.50618 45.4298276,20.8685868 C46.1008909,21.2324316 46.8225732,21.413635 47.5934282,21.413635 C48.2644915,21.413635 48.824193,21.2913946 49.2681939,21.0454757 C49.7121948,20.7995569 49.9349184,20.4313977 49.9349184,19.93956 C49.9349184,19.4290267 49.6181881,19.0019045 48.9861738,18.6567553 C48.3541594,18.3130442 47.4647113,17.9750855 46.3178295,17.6400031 C45.6453199,17.4429804 44.993058,17.1927472 44.3610436,16.8878654 C43.7290293,16.5829835 43.164989,16.21051 42.6718153,15.7675684 C42.1771954,15.326065 41.7823672,14.8198461 41.4858845,14.2503498 C41.1894018,13.6808535 41.0418836,13.0221937 41.0418836,12.2758085 C41.0418836,11.4503265 41.2356821,10.7096937 41.6218327,10.0510339 C42.0079833,9.39237407 42.5127271,8.8430115 43.1360639,8.40006996 C43.7594007,7.95712842 44.4680666,7.61916978 45.2606155,7.38331779 C46.0531644,7.1474658 46.8543908,7.0295398 47.6671873,7.0295398 C50.2805739,7.0295398 52.4210344,8.01177705 54.08423,9.97768968 L51.5344788,12.541861 C51.0398588,11.9335354 50.4772648,11.4517646 49.8452505,11.0979866 C49.2132361,10.7442086 48.520479,10.5673197 47.7698716,10.5673197 C47.5124378,10.5673197 47.2405415,10.6018346 46.9541826,10.6708644 C46.6678237,10.7398943 46.4002661,10.8376866 46.1544024,10.9656794 C45.9070924,11.0936723 45.7046165,11.2604944 45.5469744,11.4661458 C45.3878862,11.6717973 45.3097883,11.9033349 45.3097883,12.1593206 C45.3097883,12.6108909 45.6106097,13.0049363 46.2136989,13.3385805 C46.8167882,13.6722248 47.6816499,14.0073072 48.8068379,14.3409515 C49.5371977,14.5566698 50.2299549,14.8327892 50.8822168,15.1664335 C51.5344788,15.5000777 52.1071966,15.8883706 52.6018165,16.3313122 C53.0949902,16.7728156 53.4854796,17.2747201 53.7732847,17.8341496 C54.0596436,18.3921409 54.2042694,19.0263526 54.2042694,19.7339086 Z" id="Path"></path>
                <path d="M60.6357746,2.91507307 L62.0285202,2.91507307 L61.999595,7.0295398 L66.3267963,7.0295398 L66.3557214,11.2734375 L62.0285202,11.2734375 L62.0285202,19.0249145 C62.0285202,19.4577892 62.083478,19.8115672 62.1919472,20.0862484 C62.3004165,20.3609297 62.443596,20.5780861 62.6214856,20.7348414 C62.7993752,20.8930348 63.0018512,20.9994558 63.2289136,21.059857 C63.4559759,21.11882 63.6975009,21.1475824 63.9549346,21.1475824 C64.2904663,21.1475824 64.6954183,21.0886194 65.1697906,20.9706934 C65.6441629,20.8527674 66.0491149,20.6571828 66.3846465,20.3810634 L66.3846465,24.1244947 C65.9493232,24.4006141 65.4460257,24.6062655 64.8733079,24.7443252 C64.3005901,24.8809468 63.726426,24.9499767 63.1537082,24.9499767 C62.145667,24.9499767 61.2952678,24.8277363 60.603957,24.5818175 C59.9126461,24.3358986 59.3587296,23.9576726 58.9436538,23.4471393 C58.528578,22.936606 58.2277566,22.2880131 58.0397431,21.5013604 C57.8517297,20.7161458 57.757723,19.7914335 57.757723,18.7300995 L57.757723,11.2734375 L55.507347,11.2734375 L55.507347,7.48398632 C60.3826796,7.48398632 60.6357746,2.91507307 60.6357746,2.91507307" id="Path"></path>
                <path d="M85.3870184,15.9890392 C85.3870184,17.1884328 85.1830961,18.3274254 84.7781442,19.408893 C84.3717459,20.4903607 83.8019206,21.438083 83.0701145,22.2534981 C82.3368622,23.0689132 81.4647692,23.7175062 80.4552817,24.1992771 C79.444348,24.6810479 78.3350688,24.9212142 77.1274442,24.9212142 C76.3739442,24.9212142 75.6710633,24.8176695 75.0173551,24.612018 C74.3636469,24.4063666 73.7489876,24.0770367 73.1748236,23.6240283 L73.1748236,24.7917833 L68.9069189,24.7917833 L68.9069189,0.0431436567 L73.205195,0.0431436567 L73.2341201,8.29652519 C73.7272938,7.90391791 74.3159204,7.58896922 74.9985537,7.35311723 C75.6797408,7.11726524 76.3970843,6.99933924 77.1476918,6.99933924 C78.1947819,6.99933924 79.2129469,7.23087687 80.2007405,7.69251399 C81.1885341,8.15415112 82.0678584,8.78836287 82.8387134,9.59371113 C83.6095684,10.3990594 84.2271202,11.3482198 84.6913687,12.4383162 C85.154171,13.5284126 85.3870184,14.7119869 85.3870184,15.9890392 Z M81.0583709,15.9890392 C81.0583709,15.2038246 80.9397779,14.4862018 80.7011454,13.8376088 C80.462513,13.1890159 80.1298739,12.6339008 79.7046743,12.1722637 C79.2780285,11.7106266 78.7718385,11.3568486 78.1875506,11.1109297 C77.6018165,10.8650109 76.9524471,10.7427705 76.2379961,10.7427705 C75.7809788,10.7427705 75.2559875,10.8362484 74.6615758,11.0232043 C74.0657179,11.2101601 73.5696517,11.4503265 73.1733773,11.7451415 L73.1733773,19.93956 C74.1047669,20.7851757 75.1561958,21.2065454 76.327664,21.2065454 C77.0016198,21.2065454 77.6307416,21.0785525 78.2164758,20.824005 C78.8007636,20.5694574 79.3026148,20.2099269 79.7191369,19.7482898 C80.1356589,19.2866527 80.462513,18.735852 80.7011454,18.0973259 C80.9397779,17.4587998 81.0583709,16.7555581 81.0583709,15.9890392 Z" id="Shape" fill-rule="nonzero"></path>
                <path d="M105.750318,15.9890392 C105.750318,17.2660914 105.513132,18.4496657 105.03876,19.5412002 C104.564387,20.6312966 103.912125,21.5747046 103.081974,22.3714241 C102.251822,23.1667055 101.278491,23.7966029 100.161981,24.25824 C99.0454703,24.7198772 97.8552007,24.9514148 96.5897258,24.9514148 C95.3242508,24.9514148 94.1397663,24.7198772 93.0333796,24.25824 C91.9269929,23.7966029 90.9580007,23.1638293 90.1278491,22.3570429 C89.2976976,21.5516947 88.6454356,20.6025342 88.1710633,19.5124378 C87.696691,18.4223414 87.4595048,17.2473958 87.4595048,15.9904773 C87.4595048,14.7522544 87.7010297,13.5888137 88.1855259,12.4972792 C88.670022,11.4071828 89.3266227,10.453708 90.1567743,9.63829291 C90.9869258,8.8228778 91.9544718,8.18435168 93.0623048,7.72271455 C94.1686914,7.26107743 95.3444984,7.0295398 96.5897258,7.0295398 C97.8537545,7.0295398 99.0454703,7.26107743 100.161981,7.72271455 C101.278491,8.18435168 102.251822,8.81281095 103.081974,9.60953047 C103.912125,10.4048119 104.564387,11.3539723 105.03876,12.4541356 C105.513132,13.5528607 105.750318,14.7321206 105.750318,15.9890392 Z M101.482414,15.9890392 C101.482414,15.2627876 101.353697,14.5839941 101.097709,13.9555348 C100.841722,13.3270756 100.491727,12.7762749 100.049173,12.3045709 C99.6066181,11.8328669 99.088858,11.4647077 98.4973389,11.1986552 C97.9058197,10.9340407 97.2752516,10.8002954 96.6056346,10.8002954 C95.9360176,10.8002954 95.3054495,10.9326026 94.7139303,11.1986552 C94.1224112,11.4647077 93.6060974,11.8328669 93.1620965,12.3045709 C92.7195418,12.7762749 92.3695476,13.3270756 92.1135601,13.9555348 C91.8575726,14.5839941 91.730302,15.2627876 91.730302,15.9890392 C91.730302,16.7167289 91.8575726,17.3940843 92.1135601,18.0225435 C92.3695476,18.6510028 92.7195418,19.2018035 93.1620965,19.6735075 C93.6046512,20.1452114 94.1224112,20.5133706 94.7139303,20.7794232 C95.3054495,21.0440376 95.9360176,21.177783 96.6056346,21.177783 C97.2752516,21.177783 97.9058197,21.0454757 98.4973389,20.7794232 C99.088858,20.5148088 99.6051718,20.1452114 100.049173,19.6735075 C100.491727,19.2018035 100.841722,18.6524409 101.097709,18.0225435 C101.353697,17.3955224 101.482414,16.7167289 101.482414,15.9890392 Z" id="Shape" fill-rule="nonzero"></path>
                <polygon id="Path" points="123.299202 24.7083722 118.40796 24.7083722 114.850168 19.0853156 111.26345 24.7083722 106.372209 24.7083722 112.478306 15.6064988 106.861044 6.98783427 111.692989 6.98783427 114.850168 12.2168455 117.94805 6.98783427 122.808921 6.98783427 117.191658 15.6064988"></polygon>
            </g>
            <g id="Group">
                <path d="M29.5629411,0.632773632 C30.9932894,-0.209965796 33.1395349,-0.211403918 34.5698831,0.632773632 L61.5874118,16.5441542 C63.0032975,17.3782649 64.0634039,19.2262516 64.0634039,20.8628343 L64.0634039,52.7661303 C64.0634039,54.402713 63.0032975,56.2506996 61.5874118,57.0848103 L34.5698831,72.9990672 C33.1395349,73.8418066 30.9947356,73.8418066 29.5629411,72.9990672 L2.54396622,57.0862484 C1.12808053,56.2521377 0.0679740831,54.4041511 0.0679740831,52.7675684 L0.0679740831,20.8628343 C0.0679740831,19.2262516 1.12808053,17.3782649 2.54396622,16.5441542 L29.5629411,0.632773632 Z M36.47605,27.278296 C35.2640865,27.278296 34.2806317,28.2058846 34.2806317,29.3506297 L34.2806317,34.3667988 C34.2806317,35.0010106 33.6905588,35.5144201 32.9630915,35.5144201 C32.2356242,35.5144201 31.6455513,35.0010106 31.6455513,34.3667988 L31.6455513,27.5429104 C31.6455513,26.3967273 30.6620965,25.4691387 29.4501331,25.4691387 C28.2367234,25.4691387 27.2547148,26.3967273 27.2547148,27.5429104 L27.2547148,33.012088 C27.2547148,33.6448616 26.6646419,34.1597093 25.9371746,34.1597093 C25.2111535,34.1597093 24.6210806,33.6448616 24.6210806,33.012088 L24.6210806,31.030356 C24.6210806,29.885611 23.6376258,28.9565843 22.4256624,28.9565843 C21.2122527,28.9565843 20.2302441,29.8841729 20.2302441,31.030356 L20.2302441,35.7229478 C20.2302441,36.3557214 19.6401712,36.870569 18.9127039,36.870569 C18.1866829,36.870569 17.59661,36.3557214 17.59661,35.7229478 L17.59661,35.1778996 C17.59661,33.979944 16.6131552,33.0077736 15.4011917,33.0077736 C14.187782,33.0077736 13.2057735,33.979944 13.2057735,35.1778996 L13.2057735,41.6911536 C13.2057735,42.8891091 14.187782,43.8627177 15.4011917,43.8627177 C16.6131552,43.8627177 17.59661,42.8905473 17.59661,41.6911536 L17.59661,41.1461054 C17.59661,40.5133318 18.1866829,39.9984841 18.9127039,39.9984841 C19.6401712,39.9984841 20.2302441,40.5133318 20.2302441,41.1461054 L20.2302441,48.5912624 C20.2302441,49.7360075 21.2122527,50.6650342 22.4256624,50.6650342 C23.6376258,50.6650342 24.6210806,49.7360075 24.6210806,48.5912624 L24.6210806,38.4352456 C24.6210806,37.802472 25.2111535,37.2876244 25.9371746,37.2876244 C26.6646419,37.2876244 27.2547148,37.802472 27.2547148,38.4352456 L27.2547148,43.5520833 C27.2547148,44.6982665 28.2367234,45.6258551 29.4501331,45.6258551 C30.6620965,45.6258551 31.6455513,44.6982665 31.6455513,43.5520833 L31.6455513,39.7899565 C31.6455513,39.1571828 32.2356242,38.6423352 32.9630915,38.6423352 C33.6891126,38.6423352 34.2806317,39.1571828 34.2806317,39.7899565 L34.2806317,43.8109453 C34.2806317,44.9556903 35.2640865,45.884717 36.47605,45.884717 C37.6894597,45.884717 38.6714682,44.9571284 38.6714682,43.8109453 L38.6714682,29.3506297 C38.6714682,28.2058846 37.6894597,27.278296 36.47605,27.278296 Z M43.5019669,32.8797808 C42.2900035,32.8797808 41.3065487,33.8073694 41.3065487,34.9535525 L41.3065487,43.2112484 C41.3065487,44.3559935 42.2885572,45.2850202 43.5019669,45.2850202 C44.7139303,45.2850202 45.6973852,44.3574316 45.6973852,43.2112484 L45.6973852,34.9535525 C45.6959389,33.8073694 44.7124841,32.8797808 43.5019669,32.8797808 Z M50.5264376,37.0790967 C49.3144741,37.0790967 48.3310193,38.0066853 48.3310193,39.1528685 L48.3310193,41.2079447 C48.3310193,42.3526897 49.3144741,43.2817164 50.5264376,43.2817164 C51.7398473,43.2817164 52.7218558,42.3541278 52.7218558,41.2079447 L52.7218558,39.1528685 C52.7218558,38.0066853 51.7398473,37.0790967 50.5264376,37.0790967 Z" id="Combined-Shape"></path>
            </g>
        </g>
    </g>
</svg>