<?xml version="1.0" encoding="UTF-8"?>
<svg width="200px" height="193px" viewBox="0 0 200 193" version="1.1" xmlns="http://www.w3.org/2000/svg" xmlns:xlink="http://www.w3.org/1999/xlink">
    <!-- Generator: Sketch 52.5 (67469) - http://www.bohemiancoding.com/sketch -->
    <title>Logo+Text_Light_Horizontal</title>
    <desc>Created with Sketch.</desc>
    <defs>
        <linearGradient x1="-7.01001175%" y1="0.124425503%" x2="106.886436%" y2="99.764919%" id="linearGradient-1">
            <stop stop-color="#FFB768" offset="0%"></stop>
            <stop stop-color="#FF9953" offset="19.39%"></stop>
            <stop stop-color="#FF652E" offset="56.55%"></stop>
            <stop stop-color="#FF4518" offset="84.57%"></stop>
            <stop stop-color="#FF390F" offset="100%"></stop>
        </linearGradient>
    </defs>
    <g id="Page-1" stroke="none" stroke-width="1" fill="none" fill-rule="evenodd">
        <g id="Logo+Text_Light_Horizontal">
            <g id="Group" transform="translate(0.000000, 152.410864)" fill="#FF6222">
                <path d="M36.769852,32.9121448 C34.8479139,35.2480362 32.5168237,37.1027716 29.7792732,38.476351 C27.0417227,39.8499304 24.0215343,40.5380641 20.7213997,40.5380641 C17.8707941,40.5380641 15.1951548,40.0192758 12.6971736,38.9790111 C10.1991925,37.9387465 8.02422611,36.5248468 6.17765814,34.7319359 C4.32839838,32.9417131 2.87213997,30.8369916 1.80619112,28.4231476 C0.740242261,26.0093036 0.207267833,23.4099861 0.207267833,20.627883 C0.207267833,17.8457799 0.740242261,15.2464624 1.80619112,12.8326184 C2.87213997,10.4187744 4.33109017,8.30598886 6.17765814,6.49963788 C8.0269179,4.69328691 10.1991925,3.27669916 12.6971736,2.25256267 C15.1951548,1.22842618 17.8681023,0.71770195 20.7213997,0.71770195 C24.0188425,0.71770195 27.039031,1.40583565 29.7792732,2.78210306 C32.5168237,4.15837047 34.7994616,5.94859331 36.6244953,8.15545961 L31.4831763,13.4320474 C30.2987887,11.7359053 28.769852,10.37039 26.8936743,9.33012535 C25.0201884,8.28986072 22.960969,7.77107242 20.7187079,7.77107242 C18.9259758,7.77107242 17.2355316,8.11513928 15.6500673,8.80327298 C14.064603,9.49140669 12.6783311,10.4187744 11.4939435,11.585376 C10.3095559,12.7546657 9.37281292,14.112117 8.68371467,15.6631058 C7.99461642,17.2140947 7.65006729,18.8699164 7.65006729,20.627883 C7.65006729,22.3562813 7.99461642,23.9932869 8.68371467,25.5442758 C9.37281292,27.0952646 10.3095559,28.4554039 11.4939435,29.6220056 C12.6783311,30.7912953 14.064603,31.7159749 15.6500673,32.4041086 C17.2355316,33.0922423 18.9259758,33.4363092 20.7187079,33.4363092 C23.0874832,33.4363092 25.1870794,32.9013928 27.0121131,31.8288719 C28.8371467,30.759039 30.3580081,29.3424513 31.577389,27.5844847 L36.769852,32.9121448 Z" id="Path"></path>
                <path d="M62.2314939,40.2531337 L55.3135935,40.2531337 L55.3135935,38.3338858 C54.0969044,39.1671727 52.807537,39.7424095 51.4454913,40.0595961 C50.0834455,40.3794708 48.6837147,40.5407521 47.2409152,40.5407521 C45.8950202,40.5407521 44.6783311,40.3418384 43.5881561,39.9413231 C42.4979812,39.5408078 41.5531629,38.965571 40.7537012,38.2129248 C39.9515478,37.4602786 39.3351279,36.5732312 38.9044415,35.5490947 C38.4710633,34.5249582 38.2557201,33.3906128 38.2557201,32.1433705 C38.2557201,30.5762535 38.6002692,29.2080501 39.2893674,28.0414485 C39.9784657,26.8748468 40.9152086,25.8990947 42.0995962,25.1141922 C43.2839838,24.3319777 44.6702557,23.7459889 46.2557201,23.3642897 C47.8411844,22.9799025 49.5477793,22.7890529 51.3728129,22.7890529 L55.359354,22.7890529 C55.359354,21.1574234 54.8317631,19.8617967 53.7738896,18.9021727 C52.7160162,17.9425487 51.1951548,17.4613928 49.2086137,17.4613928 C48.2476447,17.4613928 47.2543742,17.6388022 46.2288022,17.9882451 C45.2032301,18.340376 44.1776581,18.9801253 43.1547779,19.907493 L39.0713324,15.7813788 C40.5437416,14.3755432 42.2503365,13.2868942 44.1884253,12.5181198 C46.1265141,11.7493454 48.1211306,11.3676462 50.1695828,11.3676462 C52.0915209,11.3676462 53.8034993,11.6713928 55.3028264,12.2788858 C56.8021534,12.8863788 58.013459,13.6712813 58.9367429,14.6309053 C60.1453567,15.8458914 60.9959623,17.2060306 61.4885599,18.7086351 C61.9811575,20.2112396 62.2288022,22.1331755 62.2288022,24.4663788 L62.2288022,40.2531337 L62.2314939,40.2531337 Z M55.3135935,32.9121448 L55.3135935,27.7780223 C48.0834455,27.5683565 46.4764468,28.6166852 46.4764468,28.6166852 C45.8519515,28.9204318 45.3539704,29.312883 44.9878869,29.791351 C44.6191117,30.272507 44.43607,30.8477437 44.43607,31.5197493 C44.43607,32.4793733 44.8129206,33.2642758 45.56393,33.8717688 C46.3149394,34.4792618 47.2839838,34.7830084 48.4710633,34.7830084 C48.4710633,34.7830084 51.2139973,34.98461 55.3135935,32.9121448 Z" id="Shape" fill-rule="nonzero"></path>
                <path d="M87.935397,32.0492897 C87.935397,33.4255571 87.615074,34.6486072 86.9717362,35.7184401 C86.3283984,36.790961 85.4939435,37.6860724 84.4683715,38.4064624 C83.4427995,39.1268524 82.2853297,39.6698329 81.0013459,40.0380919 C79.717362,40.406351 78.4495289,40.5891365 77.1978466,40.5891365 C75.0794078,40.5891365 73.12786,40.1966852 71.345895,39.4144708 C69.56393,38.6322563 68,37.3742618 66.6514132,35.6485515 L70.8317631,31.4256685 C71.6635262,32.4820613 72.6244953,33.3045961 73.7146703,33.895961 C74.8021534,34.4873259 75.9730821,34.7830084 77.2220727,34.7830084 C78.3095559,34.7830084 79.2166891,34.5840947 79.935397,34.1835794 C80.6567968,33.7830641 81.0174966,33.1836351 81.0174966,32.3852925 C81.0174966,31.5546936 80.5060565,30.8584958 79.4804845,30.2993872 C78.4549125,29.7402786 77.0148048,29.189234 75.1574697,28.6435655 C74.0672948,28.3236908 73.0121131,27.9151114 71.986541,27.4205153 C70.960969,26.9259192 70.0484522,26.3157382 69.2489906,25.5980362 C68.4468371,24.8776462 67.8061911,24.0551114 67.3270525,23.1277437 C66.8452221,22.200376 66.6056528,21.1278552 66.6056528,19.9128691 C66.6056528,18.5688579 66.9179004,17.3619359 67.5450875,16.2921031 C68.1722746,15.2195822 68.9905787,14.3244708 70,13.6040808 C71.0121131,12.8836908 72.1588156,12.3326462 73.4427995,11.9482591 C74.7267833,11.5638719 76.0269179,11.3730223 77.3432032,11.3730223 C81.5800808,11.3730223 85.0471063,12.9723955 87.7442799,16.1711421 L83.6123822,20.3456407 C82.8102288,19.3537604 81.897712,18.571546 80.8748318,17.9936212 C79.8492598,17.4183844 78.7294751,17.130766 77.512786,17.130766 C77.0955585,17.130766 76.6567968,17.1872145 76.1911171,17.2974234 C75.7254374,17.4103203 75.294751,17.5689136 74.8936743,17.7785794 C74.4925976,17.9882451 74.1641992,18.2597354 73.9084791,18.5930501 C73.6527591,18.9290529 73.5235532,19.305376 73.5235532,19.7193315 C73.5235532,20.4558496 74.0107672,21.0955989 74.9878869,21.6385794 C75.9650067,22.1815599 77.3674293,22.7272284 79.192463,23.2702089 C80.3768506,23.6223398 81.4993271,24.0712396 82.5545087,24.6142201 C83.6123822,25.1572006 84.5410498,25.7888858 85.3405114,26.5092758 C86.1399731,27.2296657 86.7725437,28.0441365 87.2382234,28.955376 C87.7039031,29.8666156 87.935397,30.8988162 87.935397,32.0492897 Z" id="Path"></path>
                <path d="M98.3606999,4.67447075 L100.619112,4.67447075 L100.573351,11.3730223 L107.588156,11.3730223 L107.633917,18.2812396 L100.619112,18.2812396 L100.619112,30.8988162 C100.619112,31.603078 100.707941,32.1783148 100.882907,32.6272145 C101.057873,33.0761142 101.292059,33.4282451 101.580081,33.6836072 C101.868102,33.9389694 102.196501,34.1163788 102.565276,34.2104596 C102.934051,34.3072284 103.327052,34.3556128 103.741588,34.3556128 C104.28533,34.3556128 104.942127,34.258844 105.711978,34.0679944 C106.48183,33.8771448 107.135935,33.5572702 107.682369,33.1083705 L107.682369,39.202117 C106.97712,39.6510167 106.161507,39.9843315 105.23284,40.2101253 C104.304172,40.4332312 103.375505,40.5461281 102.446837,40.5461281 C100.812921,40.5461281 99.4347241,40.3472145 98.3149394,39.9466992 C97.192463,39.5461838 96.2960969,38.9306267 95.6231494,38.1000279 C94.9502019,37.269429 94.4629879,36.2130362 94.1588156,34.9335376 C93.8546433,33.654039 93.7012113,32.1514345 93.7012113,30.4230362 L93.7012113,18.2785515 L90.051144,18.2785515 L90.051144,12.1122284 C97.9515478,12.1122284 98.3606999,4.67447075 98.3606999,4.67447075" id="Path"></path>
                <path d="M138.479139,25.9555432 C138.479139,27.9070474 138.15074,29.7617827 137.491252,31.5197493 C136.831763,33.2804039 135.908479,34.8233287 134.7214,36.1485237 C133.53432,37.4764067 132.121131,38.5327994 130.48183,39.3150139 C128.84253,40.0972284 127.047106,40.4896797 125.087483,40.4896797 C123.86541,40.4896797 122.726783,40.3203343 121.66891,39.9843315 C120.608345,39.6483287 119.612382,39.1134123 118.683715,38.3768942 L118.683715,40.2800139 L111.765814,40.2800139 L111.765814,0 L118.732167,0 L118.780619,13.4347354 C119.580081,12.7949861 120.535666,12.2842618 121.6393,11.8998747 C122.745626,11.5154875 123.905787,11.3246379 125.122476,11.3246379 C126.820996,11.3246379 128.468371,11.700961 130.069987,12.4509192 C131.671602,13.2035655 133.095559,14.235766 134.347241,15.5448329 C135.596231,16.8565877 136.597577,18.3995125 137.351279,20.1736072 C138.102288,21.95039 138.479139,23.8777019 138.479139,25.9555432 Z M131.464334,25.9555432 C131.464334,24.6760446 131.270525,23.5094429 130.885599,22.4530501 C130.500673,21.3966574 129.959623,20.4934819 129.270525,19.7435237 C128.578735,18.9908774 127.760431,18.4156407 126.810229,18.0151253 C125.860027,17.61461 124.807537,17.4156964 123.650067,17.4156964 C122.909825,17.4156964 122.056528,17.5662256 121.092867,17.8699721 C120.129206,18.1737187 119.324361,18.5661699 118.681023,19.0446379 L118.681023,32.3826045 C120.191117,33.7588719 121.89502,34.4470056 123.792732,34.4470056 C124.885599,34.4470056 125.905787,34.2400279 126.855989,33.8233844 C127.803499,33.4067409 128.61642,32.8234401 129.292059,32.0734819 C129.967699,31.3208357 130.497981,30.4257242 130.882907,29.3854596 C131.270525,28.347883 131.464334,27.2027855 131.464334,25.9555432 Z" id="Shape" fill-rule="nonzero"></path>
                <path d="M171.485868,25.9555432 C171.485868,28.0360724 171.100942,29.9606964 170.333782,31.7374791 C169.56393,33.5115738 168.508748,35.0491226 167.162853,36.3420613 C165.816958,37.637688 164.239569,38.6618245 162.430686,39.4117827 C160.621803,40.164429 158.69179,40.5380641 156.640646,40.5380641 C154.589502,40.5380641 152.667564,40.1617409 150.874832,39.4117827 C149.079408,38.6618245 147.510094,37.632312 146.164199,36.3178691 C144.818304,35.0061142 143.763122,33.4631894 142.993271,31.6890947 C142.223419,29.915 141.841184,28.0038162 141.841184,25.9555432 C141.841184,23.9395265 142.234186,22.0444708 143.017497,20.270376 C143.800808,18.4962813 144.866756,16.9452925 146.212651,15.6174095 C147.558546,14.2895265 149.12786,13.2519499 150.920592,12.4993036 C152.713324,11.7493454 154.619112,11.3730223 156.637954,11.3730223 C158.686406,11.3730223 160.61642,11.7493454 162.427995,12.4993036 C164.236878,13.2519499 165.814266,14.2733983 167.160162,15.5690251 C168.506057,16.8646518 169.561238,18.4075766 170.33109,20.1977994 C171.100942,21.9907103 171.485868,23.9099582 171.485868,25.9555432 Z M164.567968,25.9555432 C164.567968,24.7728134 164.3607,23.6680362 163.946164,22.6465877 C163.531629,21.6224513 162.963661,20.7273398 162.244953,19.9585655 C161.526245,19.1897911 160.689098,18.5903621 159.730821,18.1602786 C158.772544,17.727507 157.752355,17.5124652 156.664872,17.5124652 C155.577389,17.5124652 154.557201,17.727507 153.598923,18.1602786 C152.640646,18.5930501 151.803499,19.1924791 151.084791,19.9585655 C150.366083,20.7273398 149.800808,21.6224513 149.38358,22.6465877 C148.969044,23.6707242 148.761777,24.7728134 148.761777,25.9555432 C148.761777,27.138273 148.969044,28.2430501 149.38358,29.2671866 C149.798116,30.2913231 150.366083,31.1864345 151.084791,31.9525209 C151.803499,32.7212953 152.640646,33.3207242 153.598923,33.7508078 C154.557201,34.1835794 155.580081,34.3986212 156.664872,34.3986212 C157.749664,34.3986212 158.772544,34.1835794 159.730821,33.7508078 C160.689098,33.3180362 161.526245,32.7186072 162.244953,31.9525209 C162.963661,31.1837465 163.528937,30.2913231 163.946164,29.2671866 C164.358008,28.2430501 164.567968,27.140961 164.567968,25.9555432 Z" id="Shape" fill-rule="nonzero"></path>
                <polygon id="Path" points="199.927322 40.1483008 192 40.1483008 186.234186 30.995585 180.419919 40.1483008 172.492598 40.1483008 182.39031 25.33461 173.286676 11.3058217 181.117093 11.3058217 186.234186 19.8187883 191.254374 11.3058217 199.133244 11.3058217 190.02961 25.33461"></polygon>
            </g>
            <g id="Group" transform="translate(40.376851, 0.000000)">
                <path d="M55.0309556,1.31713092 L4.74562584,31.0574095 C2.11036339,32.6164624 0.137281292,36.070571 0.137281292,39.1295404 L0.137281292,98.7633148 C0.137281292,101.822284 2.11036339,105.276393 4.74562584,106.835446 L55.0309556,136.578412 C57.6958277,138.153593 61.6877524,138.153593 64.3499327,136.578412 L114.635262,106.832758 C117.270525,105.273705 119.243607,101.819596 119.243607,98.7606267 L119.243607,39.1295404 C119.243607,36.070571 117.270525,32.6164624 114.635262,31.0574095 L64.3526245,1.31713092 C61.6877524,-0.260738162 57.6958277,-0.258050139 55.0309556,1.31713092 Z" id="XMLID_14_" fill="url(#linearGradient-1)"></path>
                <path d="M67.897712,51.1208078 C65.6419919,51.1208078 63.8115747,52.8545822 63.8115747,54.9942479 L63.8115747,64.3700696 C63.8115747,65.5554875 62.7133244,66.5151114 61.3620458,66.5151114 C60.0080754,66.5151114 58.909825,65.5554875 58.909825,64.3700696 L58.909825,51.6154039 C58.909825,49.4730501 57.0794078,47.7392758 54.8236878,47.7392758 C52.5652759,47.7392758 50.7375505,49.4730501 50.7375505,51.6154039 L50.7375505,61.8379526 C50.7375505,63.0206825 49.6393001,63.9829944 48.2853297,63.9829944 C46.9340511,63.9829944 45.833109,63.0206825 45.833109,61.8379526 L45.833109,58.1338579 C45.833109,55.9941922 44.0026918,54.2577298 41.7469717,54.2577298 C39.4885599,54.2577298 37.6608345,55.9915042 37.6608345,58.1338579 L37.6608345,66.9048747 C37.6608345,68.0876045 36.5625841,69.0499164 35.2086137,69.0499164 C33.8573351,69.0499164 32.7590848,68.0876045 32.7590848,66.9048747 L32.7590848,65.8861142 C32.7590848,63.6469916 30.9286676,61.8298886 28.6729475,61.8298886 C26.4145357,61.8298886 24.5868102,63.6469916 24.5868102,65.8861142 L24.5868102,78.0601671 C24.5868102,80.2992897 26.4145357,82.1190808 28.6729475,82.1190808 C30.9286676,82.1190808 32.7590848,80.3019777 32.7590848,78.0601671 L32.7590848,77.0414067 C32.7590848,75.8586769 33.8573351,74.8963649 35.2086137,74.8963649 C36.5625841,74.8963649 37.6608345,75.8586769 37.6608345,77.0414067 L37.6608345,90.9572981 C37.6608345,93.0969638 39.4885599,94.8334262 41.7469717,94.8334262 C44.0026918,94.8334262 45.833109,93.0969638 45.833109,90.9572981 L45.833109,71.9744847 C45.833109,70.7917549 46.9313594,69.8294429 48.2853297,69.8294429 C49.6393001,69.8294429 50.7375505,70.7917549 50.7375505,71.9744847 L50.7375505,81.538468 C50.7375505,83.6808217 52.5652759,85.4145961 54.8236878,85.4145961 C57.0794078,85.4145961 58.909825,83.6808217 58.909825,81.538468 L58.909825,74.5066017 C58.909825,73.3238719 60.0080754,72.3615599 61.3620458,72.3615599 C62.7133244,72.3615599 63.8115747,73.3238719 63.8115747,74.5066017 L63.8115747,82.022312 C63.8115747,84.1619777 65.6419919,85.8984401 67.897712,85.8984401 C70.1561238,85.8984401 71.9838493,84.1646657 71.9838493,82.022312 L71.9838493,54.9942479 C71.9838493,52.8545822 70.1561238,51.1208078 67.897712,51.1208078" id="XMLID_13_" fill="#FFFFFF"></path>
                <path d="M80.974428,61.5906546 C78.7187079,61.5906546 76.8882907,63.324429 76.8882907,65.4667827 L76.8882907,80.9014067 C76.8882907,83.0410724 78.7160162,84.7775348 80.974428,84.7775348 C83.230148,84.7775348 85.0605653,83.0437604 85.0605653,80.9014067 L85.0605653,65.4667827 C85.0605653,63.324429 83.230148,61.5906546 80.974428,61.5906546" id="XMLID_12_" fill="#FFFFFF"></path>
                <path d="M94.051144,69.4396797 C91.795424,69.4396797 89.9650067,71.173454 89.9650067,73.3158078 L89.9650067,77.1569916 C89.9650067,79.2966574 91.795424,81.0331198 94.051144,81.0331198 C96.3095559,81.0331198 98.1372813,79.2993454 98.1372813,77.1569916 L98.1372813,73.3158078 C98.1372813,71.173454 96.3068641,69.4396797 94.051144,69.4396797" id="XMLID_11_" fill="#FFFFFF"></path>
            </g>
        </g>
    </g>
</svg>